<svg width="15" height="15" viewBox="0 0 15 15" fill="none" xmlns="http://www.w3.org/2000/svg">
<path d="M14.5875 0.423757C14.4834 0.319466 14.3598 0.236725 14.2237 0.180271C14.0876 0.123817 13.9417 0.0947577 13.7944 0.0947577C13.647 0.0947577 13.5011 0.123817 13.3651 0.180271C13.229 0.236725 13.1053 0.319466 13.0013 0.423757L7.50001 5.91376L1.99876 0.412507C1.8946 0.308353 1.77095 0.225733 1.63487 0.169364C1.49878 0.112996 1.35293 0.0839844 1.20563 0.0839844C1.05834 0.0839844 0.912481 0.112996 0.776396 0.169364C0.640311 0.225733 0.516662 0.308353 0.412507 0.412507C0.308353 0.516662 0.225733 0.640311 0.169364 0.776396C0.112996 0.912481 0.0839844 1.05834 0.0839844 1.20563C0.0839844 1.35293 0.112996 1.49878 0.169364 1.63487C0.225733 1.77095 0.308353 1.8946 0.412507 1.99876L5.91376 7.50001L0.412507 13.0013C0.308353 13.1054 0.225733 13.2291 0.169364 13.3651C0.112996 13.5012 0.0839844 13.6471 0.0839844 13.7944C0.0839844 13.9417 0.112996 14.0875 0.169364 14.2236C0.225733 14.3597 0.308353 14.4834 0.412507 14.5875C0.516662 14.6917 0.640311 14.7743 0.776396 14.8306C0.912481 14.887 1.05834 14.916 1.20563 14.916C1.35293 14.916 1.49878 14.887 1.63487 14.8306C1.77095 14.7743 1.8946 14.6917 1.99876 14.5875L7.50001 9.08626L13.0013 14.5875C13.1054 14.6917 13.2291 14.7743 13.3651 14.8306C13.5012 14.887 13.6471 14.916 13.7944 14.916C13.9417 14.916 14.0875 14.887 14.2236 14.8306C14.3597 14.7743 14.4834 14.6917 14.5875 14.5875C14.6917 14.4834 14.7743 14.3597 14.8306 14.2236C14.887 14.0875 14.916 13.9417 14.916 13.7944C14.916 13.6471 14.887 13.5012 14.8306 13.3651C14.7743 13.2291 14.6917 13.1054 14.5875 13.0013L9.08626 7.50001L14.5875 1.99876C15.015 1.57126 15.015 0.851258 14.5875 0.423757Z" fill="#303134"/>
</svg>
